<svg version="1" xmlns="http://www.w3.org/2000/svg" width="1930.667" height="1930.667" viewBox="0 0 1448.000000 1448.000000"><path d="M806.9 382.7c-.5 3.9-.8 450.4-.4 616.8l.1 67 320.7.3 320.7.2V382h-320.5c-176.3 0-320.5.3-320.6.7zM180.9 533.4c-.2.2-3.3.6-6.9 1-7.1.7-11.2 1.2-15 2.1-1.4.3-4.1.8-6 1.1-3.4.6-7.3 1.6-19.1 4.9-8 2.1-21.9 7.8-32.4 13.2-10.4 5.3-12.8 6.6-13.5 7.3-.9.9-10.1 7-10.5 7-.3 0-1.3.7-2.2 1.5-1 .8-4.7 3.8-8.3 6.7-12.6 10.3-25.2 24-33.8 36.8-7.1 10.6-15.2 25.3-15.2 27.6 0 .8-.5 1.4-1.2 1.4-.6 0-.9.3-.6.6.4.3-.5 3-1.8 6-1.3 3.1-2.6 6.3-2.7 7.2-.1.9-.5 2.1-.9 2.7-.3.5-1.5 4.4-2.7 8.5-5.5 20-7.6 36.2-7.5 60.5 0 14.3 1.1 32.1 1.9 33.5.2.3.6 2.6 1 5 .3 2.5 1.5 8.5 2.7 13.3 1.1 4.9 2.1 9.4 2.2 10 .2.7.6 2.1 1 3.2s1.9 5.1 3.3 9c9 25.3 22.2 46.2 41.3 65.6 14.6 14.8 31.8 27 52.3 36.9 10.3 5 34.5 13.5 41.4 14.6 2.1.3 6.5 1.2 9.8 1.9 3.3.8 8.9 1.7 12.5 2 3.6.3 8.4.8 10.7 1.1 6.8.8 27.2.7 35.1 0 13.3-1.4 18.2-2.1 29.2-4.3 4.6-.9 5-1 5.3-1.2.1-.2 1.3-.5 2.6-.7 10-1.8 47.9-17.7 48.9-20.5.2-.5.8-.9 1.4-.9.8 0 12.5-7.9 15.5-10.5.6-.5 4-3.5 7.5-6.5s8.8-8.3 11.8-11.8 6.2-7.1 7.1-8c5.9-6.3 18.7-29.1 22.9-41.2 1.3-3.6 2.8-7.1 3.3-7.8.5-.6.7-1.2.3-1.2-.3 0 .1-1.7.9-3.8 1.6-4.4 4-14.1 5.5-23.2.6-3.6 1.3-7.2 1.4-8.1.3-1.4-4.4-1.6-47.6-1.6h-48l-1 2.6c-.5 1.4-1.1 3-1.2 3.6-.4 1.5-2.3 6-5 11.8-6.5 14.1-21.1 28.5-35.1 34.7-2.7 1.3-5.8 2.6-6.7 3.1-3.1 1.5-17.5 4.9-23.9 5.5-10.8 1.1-18.5.9-29.9-1-13.4-2.3-29.1-9.5-39.6-18.2-11-9.2-18.3-18-24.5-29.4-1.3-2.5-2.8-4.8-3.2-5.1-.5-.3-.8-.9-.7-1.3.2-.6-2.4-7.7-5-14.1-.9-2.1-3.2-11.7-3.6-15-.2-1.1-.6-3.8-1-6-1.2-7.2-.9-34.6.4-37 .3-.5.7-1.8.8-3 .8-6.7 1.5-9.8 3.7-16.7 2.5-7.6 9.3-22.8 10.7-23.8.4-.3 1.3-1.6 1.9-2.8 1.8-3.3 4.6-6.6 12.1-14.3 10.5-10.6 26-19.3 40.2-22.5 1-.2 2.8-.6 4.1-.9 10.7-2.4 30.4-2.4 42.7 0 7.5 1.4 21.5 6 23 7.5.3.3 2.5 1.6 4.9 2.9 8.2 4.5 17.5 13.4 23.1 22.4 2.2 3.4 4.4 6.7 5 7.4.5.7 1 1.6 1 2.1s.6 2.2 1.4 3.8c.8 1.6 1.9 4.1 2.5 5.6l1.1 2.8h96.2l-.7-4.3c-1.2-6.8-1.3-7.6-3.4-15.6-6.4-24.5-18.9-49.2-32.6-64.6-6.7-7.5-13.2-14-17.4-17.5-2.3-1.9-5.2-4.3-6.4-5.4-3.6-3-20.8-14.1-21.4-13.8-.3.2-.9-.1-1.2-.6-1-1.5-26.2-12.8-30.6-13.6-.5-.2-4.1-1.2-8-2.3-7.8-2.4-20.7-5.1-27.5-5.9-2.5-.3-6.8-.9-9.7-1.3-5.2-.8-37.7-1.4-38.4-.7zM444.8 547.8c-1.3.3-1.5 21.4-1.5 192.6v192.3l49.1-.1 49.1-.1v-56.2c0-36.8.3-56.4 1-56.5.6 0 12.1-.2 25.6-.2l24.6-.2 2.2 3.3c1.1 1.8 2.1 3.5 2.1 3.8 0 .2 1.9 3.5 4.2 7.2 4.2 6.9 6.1 10.2 10.6 18.3 1.4 2.5 3.3 5.7 4.3 7.2 1.1 1.4 1.9 2.8 1.9 3.1 0 .3 2.6 4.9 5.8 10.4 5.9 9.8 20.1 34.3 23.1 39.6.9 1.6 2.1 3.6 2.6 4.5.6.9 2.9 4.9 5.2 8.8l4.2 7.1 54.8-.1 54.8-.1.2-6.9c.1-6.4-.2-7.4-3.6-13-2-3.4-4.4-7.2-5.2-8.6-.8-1.4-1.6-2.7-1.9-3-.3-.3-1.1-1.6-1.9-3-.8-1.4-3.7-6.1-6.4-10.5-4.3-6.8-9.3-15-14-23-.7-1.1-2.1-3.4-3.3-5-1.1-1.7-3.6-5.7-5.6-9-1.9-3.3-5.9-9.8-8.8-14.5-2.9-4.7-5.8-9.4-6.4-10.5-.6-1.1-2.8-4.6-4.9-7.8-2-3.1-3.7-6.2-3.7-6.7 0-.6-.4-1-.9-1s-1.1-.8-1.5-1.8c-.3-.9-1.9-3.7-3.5-6.2-3.7-5.7-3.7-6.2-.3-8.2 4.9-3 16.6-14 22.2-20.8 4.5-5.5 12.8-17.9 13.6-20.2.3-1 1-1.8 1.5-1.8s.9-.5.9-1.1c0-.6 1.1-3.3 2.5-6 1.3-2.7 2.2-4.9 1.8-4.9-.3 0-.1-.6.4-1.3.9-1.1 4.8-11.9 4.5-12.4-.1-.2.5-2.1 1.3-4.3.8-2.2 1.2-4 1-4-.3 0-.1-1 .4-2.3.5-1.3 1.2-4.8 1.6-7.7.4-2.9.9-6.2 1.1-7.4.6-2.7.6-25.8 0-31.1-.7-6.1-1.5-11.8-2.1-14-6.8-29.5-17.7-49.8-36.4-68.6-18.4-18.3-42.2-30.6-68.6-35.3-1.6-.3-4.1-.8-5.5-1.1-6.4-1.4-29.6-1.8-107.1-1.9-45.9 0-84.2 0-85.1.2zm101.6 88.6c2.4-.9 11.7-1 12.2-.2.3.5 1 .5 1.6.2 1.8-1.2 34.8-1 34.9.1 0 .7.2.7.5 0 .7-1.6 18.5-.9 27.9 1.1 7.9 1.7 17.6 9.4 22.3 17.8 5.3 9.4 6.6 15.1 6.7 28.1 0 16.1-3.9 26.2-14.1 37-2.8 2.9-12.4 9.1-12.4 8 0-.2-1.5.2-3.3 1-2.6 1.1-11.5 1.4-42 1.5l-38.7.1-.1-2.8c0-1.5 0-22.8-.1-47.2 0-36.6.2-44.5 1.3-45.2.8-.5 1.5-.4 1.7.1.2.5.9.7 1.6.4z"/></svg>