<svg xmlns="http://www.w3.org/2000/svg" width="47.79mm" height="22.6mm" viewBox="0 0 135.47 64.05">
  <title>логотип</title>
  <rect x="75.47" width="60" height="64.05" fill="#22a898"/>
  <path d="M44,25.21c7.45,0,15.52,4.06,16.91,13.67h-9c-1.28-3.65-4-5.29-7.86-5.29-5.4,0-8.94,4.06-8.94,10,0,5.29,3.49,9.92,8.94,10,3.9,0,7-1.95,8-5.81h9C59.7,58,51.64,62,44,62c-9.15,0-18.4-6.12-18.45-18.35S34.83,25.21,44,25.21Z" transform="translate(-25.53 -11.1)" fill="#22a898"/>
  <path d="M97.45,61.26V62.6H87.17L81,52H76.22V62.6H67v-36H82.8c14.13.05,16.7,17.06,7.61,23.23ZM82.8,34.84c-2.16-.05-4.42,0-6.58,0v8.89H82.8C87.79,43.73,88,34.9,82.8,34.84Z" transform="translate(-25.53 -11.1)" fill="#22a898"/>
  <path d="M132.75,26.52H136V62.6h-9.4v-16l-7.66,8h-1l-7.6-8v16h-9.41V26.52h3.39l14.08,15.62Z" transform="translate(-25.53 -11.1)" fill="#fff"/>
</svg>
